# xmcd
#
# Track frame offsets:
#	150
#	12487
#	32589
#	50581
#	68296
#	76176
#	89493
#	107914
#	120057
#	139659
#	155427
#	168598
#	183465
#	196781
#
# Disc length: 2880 seconds
#
# Revision: 0
# Processed by: cddbd v1.5.1PL0 Copyright (c) Steve Scherf et al.
# Submitted via: dBpowerAMP V4.0
#
DISCID=a90b3e0e
DTITLE=Gökalp Baykal - Yabancýlar
DYEAR=1999
DGENRE=Blues
TTITLE0=Aslýnda Bütün Yaptýðým
TTITLE1=Karantina
TTITLE2=Bir Þans Daha
TTITLE3=Köprüler ve Yabancýlar
TTITLE4=Gözün Üstümde
TTITLE5=Bir Uðultu Duyuyorum
TTITLE6=Soluksuz Kaldým
TTITLE7=Simetrik Yollar
TTITLE8=Konuþ Benimle
TTITLE9=On Yýl Geçti
TTITLE10=Günaydýn Hüzün
TTITLE11=Ýki Satýr Arasý
TTITLE12=Senin Gibi Bir Kadýn
TTITLE13=Neden Uyandýrmadýn
EXTD=
EXTT0=
EXTT1=
EXTT2=
EXTT3=
EXTT4=
EXTT5=
EXTT6=
EXTT7=
EXTT8=
EXTT9=
EXTT10=
EXTT11=
EXTT12=
EXTT13=
PLAYORDER=
